<svg width="25" height="26" viewBox="0 0 25 26" fill="none" xmlns="http://www.w3.org/2000/svg">
<path d="M9.33317 21.3333C8.93761 21.3333 8.55093 21.4506 8.22203 21.6704C7.89313 21.8902 7.63679 22.2025 7.48541 22.568C7.33404 22.9334 7.29443 23.3356 7.3716 23.7235C7.44877 24.1115 7.63925 24.4678 7.91896 24.7475C8.19866 25.0273 8.55503 25.2177 8.94299 25.2949C9.33095 25.3721 9.73309 25.3325 10.0985 25.1811C10.464 25.0297 10.7763 24.7734 10.9961 24.4445C11.2159 24.1156 11.3332 23.7289 11.3332 23.3333C11.3332 22.8029 11.1225 22.2942 10.7474 21.9191C10.3723 21.544 9.8636 21.3333 9.33317 21.3333ZM23.3332 17.3333H7.33317C6.97955 17.3333 6.64041 17.1929 6.39036 16.9428C6.14031 16.6928 5.99984 16.3536 5.99984 16C5.99984 15.6464 6.14031 15.3072 6.39036 15.0572C6.64041 14.8071 6.97955 14.6667 7.33317 14.6667H18.6548C19.5233 14.6639 20.3676 14.3797 21.0611 13.8567C21.7545 13.3336 22.2598 12.6 22.5012 11.7656L24.6151 4.36653C24.6718 4.1681 24.6817 3.9592 24.6439 3.7563C24.6062 3.5534 24.5219 3.36202 24.3976 3.19724C24.2733 3.03246 24.1125 2.89878 23.9278 2.80671C23.7431 2.71464 23.5396 2.6667 23.3332 2.66667H6.98526C6.70925 1.88981 6.20043 1.21695 5.52814 0.739752C4.85585 0.262557 4.05278 0.004241 3.22836 0H1.99984C1.64622 0 1.30708 0.140476 1.05703 0.390524C0.80698 0.640573 0.666504 0.979711 0.666504 1.33333C0.666504 1.68696 0.80698 2.02609 1.05703 2.27614C1.30708 2.52619 1.64622 2.66667 1.99984 2.66667H3.22836C3.5178 2.66768 3.79913 2.76242 4.03022 2.93671C4.26131 3.11099 4.42973 3.35545 4.51025 3.63347L4.71761 4.35979L4.71793 4.36653L6.90544 12.0228C5.88752 12.1323 4.95033 12.6279 4.28686 13.4076C3.62338 14.1873 3.28412 15.1918 3.33894 16.2141C3.39376 17.2364 3.83847 18.1988 4.58152 18.9031C5.32457 19.6074 6.30938 20 7.33317 20H23.3332C23.6868 20 24.0259 19.8595 24.276 19.6095C24.526 19.3594 24.6665 19.0203 24.6665 18.6667C24.6665 18.313 24.526 17.9739 24.276 17.7239C24.0259 17.4738 23.6868 17.3333 23.3332 17.3333ZM21.5656 5.33333L19.9373 11.0325C19.8569 11.3108 19.6884 11.5555 19.4572 11.7299C19.226 11.9043 18.9444 11.9991 18.6548 12H9.67236L9.33244 10.8104L7.7684 5.33333H21.5656ZM19.9998 21.3333C19.6043 21.3333 19.2176 21.4506 18.8887 21.6704C18.5598 21.8902 18.3035 22.2025 18.1521 22.568C18.0007 22.9334 17.9611 23.3356 18.0383 23.7235C18.1154 24.1115 18.3059 24.4678 18.5856 24.7475C18.8653 25.0273 19.2217 25.2177 19.6097 25.2949C19.9976 25.3721 20.3998 25.3325 20.7652 25.1811C21.1307 25.0297 21.443 24.7734 21.6628 24.4445C21.8825 24.1156 21.9998 23.7289 21.9998 23.3333C21.9998 22.8029 21.7891 22.2942 21.4141 21.9191C21.039 21.544 20.5303 21.3333 19.9998 21.3333Z" fill="#282625"/>
</svg>
